Coordinates
version=1
nRows=17
nColumns=36
inDegrees=yes

Units are S.I. units (second, meters, Newtons, ...)
If the header above contains a line with 'inDegrees', this indicates whether rotational values are in degrees (yes) or radians (no).

endheader
time	pelvis_tilt	pelvis_list	pelvis_rotation	pelvis_tx	pelvis_ty	pelvis_tz	hip_flexion_r	hip_adduction_r	hip_rotation_r	knee_angle_r	knee_angle_r_beta	ankle_angle_r	subtalar_angle_r	mtp_angle_r	hip_flexion_l	hip_adduction_l	hip_rotation_l	knee_angle_l	knee_angle_l_beta	ankle_angle_l	subtalar_angle_l	mtp_angle_l	lumbar_extension	lumbar_bending	lumbar_rotation	arm_flex_r	arm_add_r	arm_rot_r	elbow_flex_r	pro_sup_r	arm_flex_l	arm_add_l	arm_rot_l	elbow_flex_l	pro_sup_l
      3.98333330	     15.82522770	      6.00176994	     15.41601957	     -0.17237112	      0.73844323	     -0.13616110	     30.85478888	    -16.51861417	    -10.66307334	      0.98680978	      0.01722308	    -11.07612103	      2.43869887	     -7.49999987	     26.42405745	     12.62704275	      1.64234084	     78.37319349	      1.36787027	     24.81593050	    -12.20961501	     -7.49999987	    -38.73919755	     -9.08273578	     -6.04602887	     46.64382400	     13.10825179	     69.30075916	    131.30965881	     96.13853126	     65.04504823	      8.24677238	     69.47089549	    131.05955464	     66.04792860
      4.00000000	     15.54372307	      6.12867287	     15.84740377	     -0.17346464	      0.73534137	     -0.13450348	     31.07046918	    -16.79796678	    -10.71564456	      1.05442728	      0.01840323	    -11.23767290	      2.89951863	     -7.49999987	     26.84709675	     13.02121508	      2.14038333	     78.23418404	      1.36544410	     24.76036532	    -11.85499026	     -7.49999987	    -39.02246537	     -9.63114948	     -6.70379987	     46.68060721	     13.52499670	     68.55394311	    130.45125575	     96.77776017	     65.34672328	      7.97707538	     69.54222687	    131.45829227	     66.96391380
      4.01666670	     15.23080406	      5.94605160	     16.22502897	     -0.17783730	      0.73475436	     -0.13231433	     31.33295359	    -16.81285024	    -10.39525116	      1.24908527	      0.02180065	    -12.58819988	      1.91266035	     -7.49999987	     27.74102964	     12.95740025	      2.44099886	     78.46033255	      1.36939114	     23.71000582	    -12.02898954	     -7.49999987	    -39.40170871	     -9.88553706	     -6.97496032	     46.66289450	     13.75545011	     68.67081713	    130.25223327	     97.45147932	     65.64151253	      7.97147095	     69.71071277	    131.83849328	     67.72916594
      4.03333330	     15.09254916	      5.91161021	     16.65001439	     -0.18178621	      0.73245093	     -0.13093127	     31.56519057	    -17.00965432	    -10.72886082	      1.32114463	      0.02305832	    -13.60636518	      1.95450643	     -7.49999987	     28.75773099	     13.08783422	      2.65218141	     78.93513370	      1.37767798	     23.94030714	    -11.93883578	     -7.49999987	    -39.87053037	    -10.25520098	     -7.50257230	     46.95213137	     14.03750250	     69.06952339	    130.30857294	     90.04321947	     66.45699619	      7.88993964	     69.87411092	    131.99615096	     65.56331916
      4.05000000	     14.81030749	      6.13123795	     16.73864179	     -0.18456040	      0.73028440	     -0.12935769	     31.91473440	    -17.36592320	    -10.72363023	      1.52545196	      0.02662416	    -15.26569158	      0.33188729	     -7.49999987	     29.61994369	     13.37378368	      2.44092953	     79.40464490	      1.38587249	     23.45137000	    -12.56509569	     -7.49999987	    -40.14732197	    -10.99156626	     -7.78346235	     47.36640360	     14.44022054	     68.48182124	    130.50918608	     97.66987936	     67.07909880	      7.84598689	     69.39179354	    132.07900527	     68.62033520
      4.06666670	     14.61652509	      6.01403435	     17.05423585	     -0.18732262	      0.73145475	     -0.12876001	     31.92202490	    -17.48745245	    -10.80073744	      1.64489997	      0.02870892	    -16.08635421	      0.35926010	     -7.49999987	     30.41564370	     13.32343099	      2.57711846	     79.70536338	      1.39112102	     22.65435203	    -12.87224534	     -7.49999987	    -40.47775757	    -11.24099263	     -8.23182026	     47.80803080	     14.68967834	     68.42794756	    130.54520990	     97.94738141	     67.74000861	      7.76039111	     69.17533295	    132.03829071	     68.97584065
      4.08333330	     14.48899887	      6.00041420	     16.87982177	     -0.18806674	      0.73112838	     -0.12726200	     31.95112752	    -17.42468112	    -11.10766342	      1.75057744	      0.03055334	    -17.05324952	     -0.18545280	     -7.49999987	     30.83226733	     13.08682291	      2.32216949	     79.80466683	      1.39285419	     20.60000486	    -13.23570563	     -7.49999987	    -40.85616752	    -11.71235712	     -8.39251709	     48.55957029	     14.92989644	     68.28024227	    130.32403165	     97.92274340	     68.35310153	      7.70201359	     68.85736314	    132.04070948	     69.45795909
      4.10000000	     14.06928793	      6.07075230	     17.12255286	     -0.18933411	      0.73151256	     -0.12601088	     32.16223747	    -17.60721032	    -11.72971361	      1.37990651	      0.02408391	    -17.11527510	      0.88219455	     -7.49999987	     31.55788160	     13.09796725	      2.22398136	     79.72883421	      1.39153067	     19.83875520	    -12.83485204	     -7.49999987	    -41.04091211	    -12.21877203	     -8.69775680	     48.95369228	     14.97106075	     68.00268770	    130.17815443	     98.23475333	     69.08801166	      7.70957157	     68.85700707	    131.91160590	     69.54278088
      4.11666670	     13.87259460	      5.81338774	     17.18437406	     -0.18671937	      0.73211267	     -0.12623436	     31.68009630	    -17.41860724	    -11.41048072	      1.26626369	      0.02210047	    -16.34205491	      1.85611461	     -7.49999987	     31.61149315	     12.64756004	      2.37853584	     79.99585167	      1.39619100	     19.29988829	    -12.58148671	     -7.49999987	    -40.84619576	    -12.40937309	     -8.77000679	     49.17421839	     14.87876065	     68.56654254	    130.30810444	     89.25482146	     69.30040929	      7.46910344	     68.94032078	    131.98840328	     65.93343878
      4.13333330	     13.55010459	      5.78142201	     17.30788990	     -0.18963415	      0.73145915	     -0.12556021	     31.50339533	    -17.59447757	    -11.47487886	      1.21258727	      0.02116364	    -15.28823993	      3.05758136	     -7.49999987	     31.75701754	     12.57183624	      2.13512597	     79.85577952	      1.39374628	     20.00712850	    -11.97656084	     -7.49999987	    -40.85690450	    -12.69601949	     -8.79540690	     49.08260251	     14.90422066	     68.00787938	    130.26364614	     98.97606374	     69.32561090	      7.53014010	     68.55460968	    131.63025300	     70.30063270
      4.15000000	     13.44374459	      5.67979094	     17.16416608	     -0.19134622	      0.73176502	     -0.12474306	     31.23132662	    -17.61932014	    -11.28232587	      1.44151233	      0.02515914	    -15.66512020	      3.07902240	     -7.49999987	     31.84927691	     12.33557315	      2.02273550	     79.46649932	      1.38695206	     20.26729705	    -11.43887840	     -7.49999987	    -40.93518116	    -12.85913505	     -8.85985458	     49.34620311	     15.03702631	     68.19714316	    130.10950110	     91.97352481	     69.27782312	      7.33782813	     68.43515364	    131.80583182	     67.82564422
      4.16666670	     12.87443600	      5.54738372	     17.28001675	     -0.18955949	      0.73289691	     -0.12366120	     31.20497670	    -17.71063142	    -10.48740813	      1.58324317	      0.02763281	    -18.25460778	      1.40787931	     -7.49999987	     32.21650295	     12.04899868	      2.09836678	     79.01305032	      1.37903788	     20.86758594	    -10.57365717	     -7.49999987	    -40.50128691	    -13.01930612	     -8.88137034	     49.58467791	     15.01605771	     68.57527553	    130.28587408	     83.90207112	     69.02319360	      7.24390270	     68.58669871	    132.19088126	     65.61189034
      4.18333330	     12.53814142	      5.58697383	     17.22976009	     -0.19143255	      0.73574246	     -0.12461467	     31.20411447	    -17.91059613	    -10.37821359	      1.79271065	      0.03128870	    -20.03067196	      0.48862291	     -7.49999987	     32.40170107	     12.05439250	      1.91767937	     78.32390386	      1.36701001	     20.93052056	    -10.08188136	     -7.49999987	    -40.37832925	    -13.25869217	     -8.86527317	     49.60684882	     15.13782510	     67.39756159	    130.07550212	     99.87249888	     68.70435255	      7.21175607	     67.97950972	    132.18098625	     72.32079578
      4.20000000	     12.25754106	      5.60487790	     17.55074041	     -0.19342078	      0.73746580	     -0.12435366	     30.92658151	    -18.19710861	    -11.62357895	      1.64075041	      0.02863650	    -19.43297465	     -0.08989895	     -7.49999987	     32.69392386	     12.15778281	      2.02270014	     77.84141707	      1.35858902	     20.36291514	    -10.28673540	     -7.49999987	    -40.24522564	    -13.29840291	     -8.86921404	     49.45804619	     15.06557216	     67.36973482	    130.06145726	     99.74122660	     68.35908260	      7.35041860	     67.85832412	    132.53643222	     72.36441480
      4.21666670	     12.07088432	      5.59567667	     17.59015034	     -0.19411580	      0.74127162	     -0.12372462	     30.49526933	    -18.16584652	    -11.56121523	      1.81278715	      0.03163910	    -20.80460980	     -1.11344553	     -7.49999987	     32.37850088	     12.00290258	      1.91186669	     77.19592482	      1.34732306	     19.82469020	    -10.28960775	     -7.49999987	    -40.16271711	    -13.42144259	     -8.67122941	     49.46375295	     14.95332382	     67.29521763	    130.03213246	    100.29866072	     67.91014067	      7.47198307	     67.65857586	    132.87515183	     73.00034577
      4.23333330	     12.07157199	      5.57242024	     17.68657115	     -0.19375773	      0.74385197	     -0.12523544	     29.88588928	    -18.18364606	    -11.79839322	      1.80031197	      0.03142137	    -20.64753008	     -1.11066827	     -7.49999987	     32.12857176	     12.01714455	      1.88906576	     76.58546612	      1.33666854	     19.50218286	    -10.20496484	     -7.49999987	    -40.13512315	    -13.43370041	     -8.46489820	     49.41162282	     14.73991430	     67.09208780	    129.91494498	    100.24031487	     67.45561835	      7.59794111	     67.50182037	    132.99295791	     73.21828407
      4.25000000	     11.83408129	      5.53215422	     17.50052437	     -0.19393623	      0.74264001	     -0.12326845	     29.92122467	    -17.97294229	    -12.16300727	      1.65567503	      0.02889698	    -20.14955477	     -1.11015192	     -7.49999987	     32.52154195	     11.96475661	      1.82901281	     76.52319620	      1.33558173	     19.25592082	    -10.40192825	     -7.49999987	    -39.91853458	    -13.59335582	     -8.07642804	     49.48218194	     14.69729691	     67.50206714	    130.08709124	    100.21441901	     67.10957613	      7.81759686	     67.34672329	    133.12107986	     73.81185968
